<?xml version="1.0" encoding="UTF-8" standalone="no"?>
<svg width="686px" height="95px" viewBox="0 0 686 95" version="1.1" xmlns="http://www.w3.org/2000/svg" xmlns:xlink="http://www.w3.org/1999/xlink" xmlns:sketch="http://www.bohemiancoding.com/sketch/ns">
    <!-- Generator: Sketch 3.3.1 (12005) - http://www.bohemiancoding.com/sketch -->
    <title>logo-fr</title>
    <desc>Created with Sketch.</desc>
    <defs></defs>
    <g id="Page-1" stroke="none" stroke-width="1" fill="none" fill-rule="evenodd" sketch:type="MSPage">
        <g id="Google-App-Copy" sketch:type="MSLayerGroup" fill="#FFFFFF">
            <g id="logo" transform="translate(1.000000, 0.000000)" sketch:type="MSShapeGroup">
                <path d="M75.5530461,46.2347244 C84.0295327,43.1513963 90.0833333,35.0230127 90.0833333,25.4806883 L90.0833333,25.4806883 L90.0833333,3.40287654 L68.0055215,3.40287654 C59.449717,3.40287654 52.0306093,8.2696537 48.3655372,15.3858691 C50.8925657,15.7935303 53.2954661,16.4531247 55.5742612,17.3646564 C59.6967653,19.0136827 63.2474819,21.3005055 66.2265177,24.2251937 C69.2055534,27.1498818 71.507501,30.5878944 73.1324296,34.5393347 C74.6225963,38.1630661 75.4294622,42.0614963 75.5530461,46.2347244 L75.5530461,46.2347244 Z M43.2368202,14.9089742 C39.4903774,8.05311412 32.2131982,3.40287654 23.8498979,3.40287654 C11.6566592,3.40287654 1.77208612,13.2874496 1.77208612,25.4806883 C1.77208612,35.8027214 8.85562449,44.4703055 18.4267739,46.8875131 L18.4267739,14.8911293 L41.9881207,14.8911293 C42.407285,14.8911293 42.8235182,14.8970776 43.2368202,14.9089742 L43.2368202,14.9089742 Z M75.5472709,48.8801761 C84.0267829,51.9619123 90.0833333,60.0918206 90.0833333,69.6363119 C90.0833333,81.8295507 80.1987603,91.7141237 68.0055215,91.7141237 C59.4476383,91.7141237 52.0270043,86.8449815 48.3628665,79.725944 C50.8908727,79.3106256 53.2946633,78.6384398 55.5742612,77.7093822 C59.6967653,76.0292422 63.2474819,73.7268627 66.2265177,70.8021746 C69.2055534,67.8774865 71.507501,64.4239172 73.1324296,60.4413632 C74.6010987,56.8417872 75.4060398,52.9880899 75.5472709,48.8801761 L75.5472709,48.8801761 Z M43.2349472,80.2114529 C39.4879523,87.0654357 32.2118047,91.7141237 23.8498979,91.7141237 C11.6566592,91.7141237 1.77208612,81.8295507 1.77208612,69.6363119 C1.77208612,59.3142789 8.85562449,50.6466948 18.4267739,48.2294872 L18.4267739,80.2295796 L41.9881207,80.2295796 C42.4066518,80.2295796 42.8222607,80.2235374 43.2349472,80.2114529 L43.2349472,80.2114529 Z M30.6165424,46.187938 C38.9277653,43.5147106 45.0898592,36.0493338 45.8488414,27.0457904 C44.7558552,26.9027063 43.6231215,26.8311647 42.4506359,26.8311647 L30.6165424,26.8311647 L30.6165424,46.187938 L30.6165424,46.187938 Z M63.2866847,48.0639298 C53.9620665,50.0941992 46.8373928,58.0164771 46.0084381,67.7349888 C47.7869696,67.4967444 49.4595057,67.073015 51.0260659,66.4637972 C53.5987078,65.4633253 55.7854206,64.0626858 57.5862699,62.2618364 C59.3871193,60.4609871 60.7877588,58.3171511 61.7882307,55.8302639 C62.7499955,53.4395914 63.2494757,50.8508374 63.2866847,48.0639298 L63.2866847,48.0639298 Z M46.0084381,26.8311647 C55.3330563,28.8614341 62.45773,36.7837119 63.2866847,46.5022237 C61.5081532,46.2639793 59.8356171,45.8402499 58.2690569,45.2310321 C55.696415,44.2305602 53.5097022,42.8299206 51.7088529,41.0290713 C49.9080035,39.228222 48.507364,37.0843859 47.5068921,34.5974988 C46.5451273,32.2068263 46.0456471,29.6180723 46.0084381,26.8311647 L46.0084381,26.8311647 Z M45.8487504,67.7558452 C45.0893668,58.7527843 38.9274333,51.2878973 30.6165424,48.6147766 L30.6165424,67.9644974 L42.4506359,67.9644974 C43.6230889,67.9644974 44.7557923,67.8949469 45.8487504,67.7558452 L45.8487504,67.7558452 Z" id="logo-mobile-copy"></path>
                <path d="M103.385424,2.37364176 L122.687067,2.37364176 C126.729833,2.37364176 130.439754,3.02688371 133.816943,4.3333872 C137.194131,5.63989069 140.102906,7.45171269 142.543356,9.76890756 C144.983806,12.0861024 146.86958,14.8099981 148.200735,17.9406763 C149.531889,21.0713544 150.197456,24.4608174 150.197456,28.1091667 L150.197456,28.2570721 C150.197456,31.9054214 149.531889,35.3072097 148.200735,38.4625389 C146.86958,41.617868 144.983806,44.354089 142.543356,46.6712839 C140.102906,48.9884788 137.194131,50.8126261 133.816943,52.1437806 C130.439754,53.4749351 126.729833,54.1405024 122.687067,54.1405024 L103.385424,54.1405024 L103.385424,2.37364176 Z M112.481601,10.6563395 L112.481601,45.8578047 L122.687067,45.8578047 C125.398679,45.8578047 127.863742,45.4264185 130.082333,44.5636331 C132.300924,43.7008478 134.186698,42.4929665 135.739712,40.9399529 C137.292725,39.3869393 138.500607,37.5381414 139.363392,35.3935036 C140.226177,33.2488658 140.657563,30.9193803 140.657563,28.4049774 L140.657563,28.2570721 C140.657563,25.7426691 140.226177,23.4008584 139.363392,21.2315696 C138.500607,19.0622807 137.292725,17.2011575 135.739712,15.6481439 C134.186698,14.0951303 132.300924,12.8749236 130.082333,11.9874873 C127.863742,11.100051 125.398679,10.6563395 122.687067,10.6563395 L112.481601,10.6563395 Z M174.64057,55.0279343 C171.830355,55.0279343 169.205062,54.5349215 166.764612,53.5488811 C164.324162,52.5628407 162.204207,51.1824049 160.404684,49.4075322 C158.60516,47.6326596 157.187748,45.5003793 156.152406,43.0106273 C155.117064,40.5208754 154.5994,37.7723291 154.5994,34.764906 L154.5994,34.6170006 C154.5994,31.8067856 155.067762,29.1691672 156.004501,26.7040662 C156.941239,24.2389653 158.260048,22.0820344 159.960968,20.2332087 C161.661887,18.384383 163.670915,16.9299952 165.988109,15.8700018 C168.305304,14.8100084 170.868971,14.2800197 173.679186,14.2800197 C176.785213,14.2800197 179.509109,14.8469844 181.850955,15.9809308 C184.1928,17.1148773 186.140201,18.6432169 187.693215,20.5659956 C189.246228,22.4887744 190.417134,24.7196572 191.205966,27.2587112 C191.994798,29.7977651 192.389208,32.4723595 192.389208,35.2825746 C192.389208,35.6769907 192.376883,36.0837263 192.352232,36.5027934 C192.327581,36.9218606 192.290605,37.3532468 192.241303,37.7969649 L163.547672,37.7969649 C164.040692,41.0015961 165.3102,43.4543348 167.356234,45.1552544 C169.402267,46.856174 171.879657,47.7066211 174.788476,47.7066211 C177.007067,47.7066211 178.929816,47.3122109 180.556783,46.5233786 C182.18375,45.7345463 183.786041,44.5759662 185.363706,43.0476037 L190.614345,47.7066211 C188.740868,49.9252119 186.509985,51.700058 183.921629,53.0312125 C181.333273,54.362367 178.239618,55.0279343 174.64057,55.0279343 L174.64057,55.0279343 Z M183.514889,31.8807523 C183.366983,30.4509938 183.046525,29.1075339 182.553505,27.8503324 C182.060485,26.593131 181.394917,25.5085028 180.556783,24.5964155 C179.718649,23.6843281 178.720298,22.9571343 177.5617,22.4148121 C176.403103,21.8724899 175.084294,21.6013328 173.605233,21.6013328 C170.84432,21.6013328 168.564136,22.5503825 166.764612,24.4485102 C164.965089,26.3466379 163.868135,28.8240272 163.473719,31.8807523 L183.514889,31.8807523 Z M197.974395,15.0934989 L206.922666,15.0934989 L206.922666,21.0097116 C207.563593,20.1222752 208.253811,19.2841535 208.993341,18.4953212 C209.732871,17.7064889 210.583318,16.9916204 211.544708,16.3506941 C212.506097,15.7097679 213.590725,15.2044298 214.798624,14.8346646 C216.006524,14.4648995 217.349984,14.2800197 218.829044,14.2800197 C221.639259,14.2800197 224.030371,14.908611 226.002452,16.1658125 C227.974533,17.423014 229.478222,19.0869321 230.513564,21.1576169 C232.091229,19.0869321 233.940027,17.423014 236.060014,16.1658125 C238.18,14.908611 240.719016,14.2800197 243.677137,14.2800197 C247.966413,14.2800197 251.3189,15.5741783 253.734699,18.1625342 C256.150498,20.7508902 257.358379,24.4361608 257.358379,29.2184566 L257.358379,54.1405024 L248.410108,54.1405024 L248.410108,31.954705 C248.410108,28.8486778 247.71989,26.4822164 246.339433,24.8552498 C244.958977,23.2282832 243.011576,22.4148121 240.497173,22.4148121 C238.032072,22.4148121 236.023045,23.2406085 234.470031,24.8922261 C232.917018,26.5438437 232.140523,28.9472811 232.140523,32.1026103 L232.140523,54.1405024 L223.192251,54.1405024 L223.192251,31.8807523 C223.192251,28.8240272 222.502033,26.4822164 221.121577,24.8552498 C219.74112,23.2282832 217.79372,22.4148121 215.279317,22.4148121 C212.764914,22.4148121 210.743561,23.2775845 209.215199,25.0031551 C207.686836,26.7287258 206.922666,29.0951871 206.922666,32.1026103 L206.922666,54.1405024 L197.974395,54.1405024 L197.974395,15.0934989 Z M283.354499,55.0279343 C280.396378,55.0279343 277.647832,54.4979455 275.108778,53.4379521 C272.569724,52.3779587 270.375817,50.9358963 268.526991,49.1117216 C266.678166,47.2875469 265.236103,45.1429413 264.200761,42.6778404 C263.165418,40.2127394 262.647755,37.5997717 262.647755,34.8388586 L262.647755,34.6909533 C262.647755,31.8807382 263.177744,29.2431198 264.237737,26.7780189 C265.29773,24.312918 266.752118,22.155987 268.600944,20.3071613 C270.44977,18.4583356 272.643676,16.9916226 275.18273,15.9069782 C277.721784,14.8223338 280.494981,14.2800197 283.502404,14.2800197 C286.509828,14.2800197 289.283025,14.8100084 291.822078,15.8700018 C294.361132,16.9299952 296.555039,18.384383 298.403865,20.2332087 C300.252691,22.0820344 301.694753,24.22664 302.730096,26.6670899 C303.765438,29.1075398 304.283101,31.7328329 304.283101,34.543048 L304.283101,34.6909533 C304.283101,37.4518663 303.753113,40.0648341 302.693119,42.5299351 C301.633126,44.995036 300.178738,47.1519669 298.329912,49.0007926 C296.481087,50.8496183 294.274854,52.3163314 291.71115,53.4009758 C289.147445,54.4856202 286.361922,55.0279343 283.354499,55.0279343 L283.354499,55.0279343 Z M283.502404,47.1889525 C285.326579,47.1889525 286.965847,46.8561689 288.420256,46.1905916 C289.874666,45.5250144 291.119523,44.6375914 292.154865,43.5282959 C293.190208,42.4190005 293.979028,41.1125166 294.521351,39.6088051 C295.063673,38.1050935 295.33483,36.5151272 295.33483,34.8388586 L295.33483,34.6909533 C295.33483,32.9653827 295.039022,31.3384405 294.447398,29.8100779 C293.855774,28.2817153 293.029977,26.9505808 291.969984,25.8166343 C290.90999,24.6826879 289.652808,23.7829396 288.198398,23.1173623 C286.743989,22.4517851 285.129372,22.1190014 283.354499,22.1190014 C281.579626,22.1190014 279.96501,22.4517851 278.5106,23.1173623 C277.056191,23.7829396 275.811333,24.6703626 274.775991,25.779658 C273.740648,26.8889534 272.951828,28.2077626 272.409506,29.7361252 C271.867184,31.2644878 271.596027,32.8667794 271.596027,34.543048 L271.596027,34.6909533 C271.596027,36.416524 271.891834,38.0311408 272.483458,39.5348524 C273.075083,41.038564 273.900879,42.3573732 274.960872,43.4913196 C276.020866,44.625266 277.278048,45.5250144 278.732458,46.1905916 C280.186868,46.8561689 281.776834,47.1889525 283.502404,47.1889525 L283.502404,47.1889525 Z M327.986689,55.0279343 C325.07787,55.0279343 322.39095,54.4979455 319.925849,53.4379521 C317.460748,52.3779587 315.328468,50.9358963 313.528944,49.1117216 C311.729421,47.2875469 310.324334,45.1429413 309.313643,42.6778404 C308.302951,40.2127394 307.797613,37.5997717 307.797613,34.8388586 L307.797613,34.6909533 C307.797613,31.9300403 308.302951,29.3047472 309.313643,26.8149952 C310.324334,24.3252433 311.741746,22.155987 313.565921,20.3071613 C315.390095,18.4583356 317.534701,16.9916226 319.999802,15.9069782 C322.464903,14.8223338 325.176473,14.2800197 328.134594,14.2800197 C329.958769,14.2800197 331.622687,14.4402489 333.126399,14.760712 C334.63011,15.0811751 336.010546,15.5372119 337.267748,16.1288361 C338.524949,16.7204604 339.683529,17.4353289 340.743522,18.2734632 C341.803516,19.1115975 342.801867,20.0236712 343.738605,21.0097116 L338.118203,26.9998769 C336.737747,25.5701183 335.271034,24.399213 333.71802,23.4871256 C332.165006,22.5750383 330.279232,22.1190014 328.060642,22.1190014 C326.433675,22.1190014 324.929986,22.4517851 323.549529,23.1173623 C322.169073,23.7829396 320.973517,24.6703626 319.962826,25.779658 C318.952134,26.8889534 318.163314,28.2077626 317.596341,29.7361252 C317.029367,31.2644878 316.745885,32.8667794 316.745885,34.543048 L316.745885,34.6909533 C316.745885,36.416524 317.029367,38.0434662 317.596341,39.5718287 C318.163314,41.1001913 318.96446,42.4313258 319.999802,43.5652723 C321.035144,44.6992187 322.267676,45.5866417 323.697435,46.227568 C325.127193,46.8684942 326.704834,47.1889525 328.430405,47.1889525 C330.550392,47.1889525 332.411515,46.745241 334.013831,45.8578047 C335.616146,44.9703683 337.132161,43.8117883 338.561919,42.3820297 L343.960463,47.7066211 C342.037684,49.8759099 339.843777,51.6384306 337.378677,52.9942362 C334.913576,54.3500417 331.782944,55.0279343 327.986689,55.0279343 L327.986689,55.0279343 Z M348.73217,15.0934989 L357.680442,15.0934989 L357.680442,23.8938652 C358.912992,20.9357441 360.663188,18.5692827 362.931081,16.7944101 C365.198973,15.0195374 368.058448,14.2060663 371.509589,14.3539724 L371.509589,23.8199126 L370.99192,23.8199126 C369.01984,23.8199126 367.220343,24.1403709 365.593376,24.7812971 C363.96641,25.4222234 362.561323,26.3835983 361.378075,27.6654508 C360.194826,28.9473033 359.282753,30.5619202 358.641826,32.5093499 C358.0009,34.4567796 357.680442,36.7123131 357.680442,39.2760181 L357.680442,54.1405024 L348.73217,54.1405024 L348.73217,15.0934989 Z M385.229568,54.9539816 C383.405393,54.9539816 381.655198,54.6951499 379.978929,54.1774787 C378.30266,53.6598075 376.835947,52.8956377 375.578746,51.8849463 C374.321544,50.8742549 373.310868,49.6170723 372.546687,48.1133607 C371.782506,46.6096492 371.400421,44.8717791 371.400421,42.8996983 L371.400421,42.751793 C371.400421,40.6318062 371.794831,38.7830083 372.583663,37.2053437 C373.372495,35.6276791 374.469449,34.3211952 375.874556,33.2858528 C377.279664,32.2505104 378.980558,31.4740153 380.97729,30.9563441 C382.974022,30.4386729 385.155603,30.1798412 387.5221,30.1798412 C389.740691,30.1798412 391.663441,30.327745 393.290407,30.6235571 C394.917374,30.9193692 396.495015,31.3137795 398.023378,31.8067996 L398.023378,30.8454151 C398.023378,28.0352 397.197581,25.915245 395.545963,24.4854865 C393.894346,23.055728 391.490909,22.3408594 388.335579,22.3408594 C386.116989,22.3408594 384.144937,22.5627152 382.419367,23.0064333 C380.693796,23.4501515 378.943601,24.0417669 377.168728,24.7812971 L374.802243,17.7557946 C376.971532,16.7697543 379.190089,15.9932591 381.457982,15.4262859 C383.725875,14.8593127 386.412795,14.5758303 389.518822,14.5758303 C395.33646,14.5758303 399.650322,16.0302181 402.460537,18.9390372 C403.890296,20.3687957 404.950273,22.0943405 405.640501,24.1157232 C406.33073,26.137106 406.675839,28.4296154 406.675839,30.9933204 L406.675839,54.1405024 L397.949425,54.1405024 L397.949425,49.2596269 C396.61827,50.8372915 394.917376,52.1807514 392.846691,53.2900468 C390.776007,54.3993422 388.236991,54.9539816 385.229568,54.9539816 L385.229568,54.9539816 Z M387.743958,48.4461477 C389.223019,48.4461477 390.603454,48.2489426 391.885307,47.8545264 C393.167159,47.4601103 394.264113,46.8931456 395.1762,46.1536153 C396.088288,45.414085 396.815481,44.526662 397.357804,43.4913196 C397.900126,42.4559772 398.171283,41.3220478 398.171283,40.0894973 L398.171283,37.4272016 C397.037336,36.9834835 395.718527,36.6137239 394.214816,36.3179118 C392.711104,36.0220997 391.071837,35.8741958 389.296964,35.8741958 C386.388145,35.8741958 384.132611,36.4411605 382.530296,37.575107 C380.92798,38.7090534 380.126834,40.311345 380.126834,42.3820297 L380.126834,42.5299351 C380.126834,44.4034118 380.854028,45.8577995 382.308438,46.8931419 C383.762847,47.9284843 385.574669,48.4461477 387.743958,48.4461477 L387.743958,48.4461477 Z M432.006385,55.0279343 C429.097566,55.0279343 426.410646,54.4979455 423.945545,53.4379521 C421.480444,52.3779587 419.348164,50.9358963 417.54864,49.1117216 C415.749116,47.2875469 414.34403,45.1429413 413.333338,42.6778404 C412.322647,40.2127394 411.817309,37.5997717 411.817309,34.8388586 L411.817309,34.6909533 C411.817309,31.9300403 412.322647,29.3047472 413.333338,26.8149952 C414.34403,24.3252433 415.761442,22.155987 417.585616,20.3071613 C419.409791,18.4583356 421.554397,16.9916226 424.019498,15.9069782 C426.484598,14.8223338 429.196169,14.2800197 432.15429,14.2800197 C433.978465,14.2800197 435.642383,14.4402489 437.146094,14.760712 C438.649806,15.0811751 440.030242,15.5372119 441.287443,16.1288361 C442.544645,16.7204604 443.703225,17.4353289 444.763218,18.2734632 C445.823212,19.1115975 446.821562,20.0236712 447.758301,21.0097116 L442.137899,26.9998769 C440.757442,25.5701183 439.290729,24.399213 437.737716,23.4871256 C436.184702,22.5750383 434.298928,22.1190014 432.080337,22.1190014 C430.453371,22.1190014 428.949682,22.4517851 427.569225,23.1173623 C426.188769,23.7829396 424.993213,24.6703626 423.982521,25.779658 C422.97183,26.8889534 422.183009,28.2077626 421.616036,29.7361252 C421.049063,31.2644878 420.765581,32.8667794 420.765581,34.543048 L420.765581,34.6909533 C420.765581,36.416524 421.049063,38.0434662 421.616036,39.5718287 C422.183009,41.1001913 422.984155,42.4313258 424.019498,43.5652723 C425.05484,44.6992187 426.287372,45.5866417 427.71713,46.227568 C429.146889,46.8684942 430.72453,47.1889525 432.450101,47.1889525 C434.570087,47.1889525 436.431211,46.745241 438.033526,45.8578047 C439.635842,44.9703683 441.151856,43.8117883 442.581615,42.3820297 L447.980159,47.7066211 C446.05738,49.8759099 443.863473,51.6384306 441.398372,52.9942362 C438.933271,54.3500417 435.80264,55.0279343 432.006385,55.0279343 L432.006385,55.0279343 Z M479.448775,15.0934989 L488.76681,15.0934989 L473.236752,55.2497922 C472.44792,57.271175 471.634449,58.9720691 470.796314,60.3525256 C469.95818,61.7329821 469.021456,62.8545862 467.986113,63.7173716 C466.950771,64.5801569 465.816842,65.2087482 464.584291,65.6031643 C463.351741,65.9975805 461.946654,66.1947856 460.36899,66.1947856 C458.495513,66.1947856 456.831595,65.9852552 455.377185,65.566188 C453.922776,65.1471209 452.505364,64.5678308 451.124907,63.8283006 L454.156966,57.1725613 C454.995101,57.6162795 455.845548,57.9737138 456.708333,58.2448749 C457.571118,58.516036 458.470867,58.6516145 459.407605,58.6516145 C460.689458,58.6516145 461.749435,58.3311562 462.587569,57.6902299 C463.425704,57.0493037 464.214524,55.8907236 464.954054,54.214455 L448.68447,15.0934989 L458.298315,15.0934989 L469.317261,44.0829409 L479.448775,15.0934989 Z M518.534516,55.0279343 C514.590354,55.0279343 511.040662,54.3007404 507.885333,52.8463308 C504.730004,51.3919213 502.030759,49.4321955 499.787517,46.9670945 C497.544275,44.5019936 495.818731,41.6671701 494.610831,38.4625389 C493.402932,35.2579077 492.798991,31.88077 492.798991,28.3310247 L492.798991,28.1831194 C492.798991,24.6333741 493.402932,21.2562365 494.610831,18.0516053 C495.818731,14.8469741 497.544275,12.0121505 499.787517,9.54704959 C502.030759,7.08194866 504.730004,5.12222282 507.885333,3.66781328 C511.040662,2.21340373 514.590354,1.48620987 518.534516,1.48620987 C522.429375,1.48620987 525.966742,2.21340373 529.146722,3.66781328 C532.326703,5.12222282 535.038273,7.08194866 537.281515,9.54704959 C539.524757,12.0121505 541.250301,14.8469741 542.458201,18.0516053 C543.6661,21.2562365 544.270041,24.6333741 544.270041,28.1831194 L544.270041,28.3310247 C544.270041,31.88077 543.6661,35.2579077 542.458201,38.4625389 C541.250301,41.6671701 539.524757,44.5019936 537.281515,46.9670945 C535.038273,49.4321955 532.326703,51.3919213 529.146722,52.8463308 C525.966742,54.3007404 522.429375,55.0279343 518.534516,55.0279343 L518.534516,55.0279343 Z M518.608469,53.5488811 C522.207516,53.5488811 525.486051,52.8586632 528.444172,51.4782067 C531.402293,50.0977501 533.941309,48.2612775 536.061296,45.9687336 C538.181283,43.6761898 539.808225,41.0139207 540.942171,37.9818466 C542.076118,34.9497724 542.643082,31.7575146 542.643082,28.4049774 L542.643082,28.2570721 C542.643082,24.9538368 542.063792,21.7739043 540.905195,18.7171792 C539.746598,15.660454 538.10733,12.9735343 535.987343,10.6563395 C533.867356,8.33914459 531.316015,6.47802131 528.333243,5.07291378 C525.350471,3.66780625 522.059611,2.96526303 518.460563,2.96526303 C514.812214,2.96526303 511.521354,3.65548093 508.587883,5.03593745 C505.654413,6.41639397 503.127723,8.25286661 501.007736,10.5454105 C498.887749,12.8379543 497.260807,15.5125487 496.126861,18.5692739 C494.992914,21.625999 494.425949,24.8059315 494.425949,28.1091667 L494.425949,28.2570721 C494.425949,31.5603073 495.005239,34.7402398 496.163837,37.7969649 C497.322434,40.8536901 498.961702,43.5406098 501.081689,45.8578047 C503.201675,48.1749995 505.753017,50.0361228 508.735789,51.4412303 C511.718561,52.8463379 515.009421,53.5488811 518.608469,53.5488811 L518.608469,53.5488811 Z M571.07964,54.8800289 C567.086177,54.8800289 563.376255,54.1651604 559.949765,52.7354019 C556.523275,51.3056433 553.404969,49.2596402 550.594754,46.5973312 L551.777996,45.4140887 C554.440305,47.9777937 557.398382,49.9498448 560.652315,51.3303014 C563.906249,52.7107579 567.43129,53.4009758 571.227545,53.4009758 C573.643344,53.4009758 575.837251,53.0928428 577.809332,52.4765676 C579.781413,51.8602923 581.457656,51.0098453 582.838113,49.9252008 C584.218569,48.8405564 585.278547,47.5463979 586.018077,46.0426863 C586.757607,44.5389747 587.127367,42.9243579 587.127367,41.1987872 L587.127367,41.0508819 C587.127367,39.4732173 586.85621,38.0558055 586.313888,36.7986041 C585.771565,35.5414026 584.859492,34.4197985 583.577639,33.4337581 C582.295787,32.4477177 580.557917,31.57262 578.363977,30.8084388 C576.170037,30.0442575 573.446141,29.3170636 570.192208,28.6268353 C566.987577,27.9859091 564.263681,27.2587152 562.02044,26.4452319 C559.777198,25.6317486 557.95305,24.682699 556.547943,23.5980546 C555.142835,22.5134102 554.119834,21.2685529 553.478908,19.8634454 C552.837981,18.4583379 552.517523,16.843721 552.517523,15.0195463 L552.517523,14.871641 C552.517523,13.0474663 552.936584,11.3342468 553.774718,9.73193123 C554.612852,8.12961563 555.783758,6.72452918 557.287469,5.51662973 C558.791181,4.30873028 560.566027,3.35968066 562.612061,2.6694524 C564.658095,1.97922414 566.913628,1.63411518 569.378729,1.63411518 C572.780568,1.63411518 575.972826,2.16410393 578.955598,3.22409733 C581.93837,4.28409073 584.612965,5.72615314 586.979462,7.55032782 L585.944124,8.88147567 C583.62693,7.15590502 581.063263,5.76314389 578.253048,4.70315049 C575.442833,3.64315709 572.435455,3.11316834 569.230824,3.11316834 C566.962931,3.11316834 564.904602,3.43362666 563.055777,4.0745529 C561.206951,4.71547914 559.616985,5.57825152 558.28583,6.66289593 C556.954676,7.74754033 555.931674,8.99239763 555.216795,10.3975052 C554.501916,11.8026127 554.144481,13.2693257 554.144481,14.7976883 L554.144481,14.9455936 C554.144481,16.5232582 554.415638,17.9283447 554.957961,19.1608951 C555.500283,20.3934456 556.424682,21.490399 557.731185,22.4517884 C559.037689,23.4131778 560.750908,24.2759502 562.870895,25.0401314 C564.990882,25.8043127 567.653151,26.5068559 570.857782,27.1477822 C574.210319,27.8380104 577.032818,28.6145056 579.325361,29.4772909 C581.617905,30.3400762 583.466703,31.3261018 584.871811,32.4353972 C586.276918,33.5446927 587.275269,34.8018753 587.866893,36.2069828 C588.458518,37.6120903 588.754325,39.2020566 588.754325,40.9769292 L588.754325,41.1248345 C588.754325,43.0476133 588.34759,44.84711 587.534107,46.5233786 C586.720623,48.1996472 585.549718,49.6540349 584.021355,50.8865854 C582.492993,52.1191359 580.631869,53.0928361 578.43793,53.8077154 C576.24399,54.5225947 573.791251,54.8800289 571.07964,54.8800289 L571.07964,54.8800289 Z" id="DemocracyOS-Copy"></path>
                <path d="M102.964286,64.5833333 L122.191667,64.5833333 L122.191667,68.7166667 L107.503571,68.7166667 L107.503571,75.7654762 L120.530952,75.7654762 L120.530952,79.8988095 L107.503571,79.8988095 L107.503571,90.4166667 L102.964286,90.4166667 L102.964286,64.5833333 Z M127.17381,64.5833333 L138.688095,64.5833333 C140.311913,64.5833333 141.751184,64.8109104 143.005952,65.2660714 C144.260721,65.7212324 145.306345,66.3547578 146.142857,67.1666667 C146.831749,67.8801623 147.360712,68.7043604 147.729762,69.6392857 C148.098811,70.574211 148.283333,71.607534 148.283333,72.7392857 L148.283333,72.8130952 C148.283333,74.9289788 147.711315,76.6327316 146.567262,77.9244048 C145.423209,79.2160779 143.953184,80.1202355 142.157143,80.6369048 L149.132143,90.4166667 L143.744048,90.4166667 L137.396429,81.4119048 L131.713095,81.4119048 L131.713095,90.4166667 L127.17381,90.4166667 L127.17381,64.5833333 Z M138.355952,77.3892857 C139.97977,77.3892857 141.271424,77.0017896 142.230952,76.2267857 C143.190481,75.4517818 143.670238,74.4000066 143.670238,73.0714286 L143.670238,72.997619 C143.670238,71.5952311 143.202782,70.5311544 142.267857,69.8053571 C141.332932,69.0795599 140.016675,68.7166667 138.319048,68.7166667 L131.713095,68.7166667 L131.713095,77.3892857 L138.355952,77.3892857 Z M163.008333,64.3988095 L167.215476,64.3988095 L178.582143,90.4166667 L173.784524,90.4166667 L171.164286,84.1797619 L158.94881,84.1797619 L156.291667,90.4166667 L151.641667,90.4166667 L163.008333,64.3988095 Z M169.503571,80.1571429 L165.038095,69.8238095 L160.609524,80.1571429 L169.503571,80.1571429 Z M183.010714,64.5833333 L187.217857,64.5833333 L201.057143,82.4452381 L201.057143,64.5833333 L205.522619,64.5833333 L205.522619,90.4166667 L201.721429,90.4166667 L187.47619,72.0380952 L187.47619,90.4166667 L183.010714,90.4166667 L183.010714,64.5833333 Z M224.159524,90.8595238 C222.26507,90.8595238 220.518262,90.5150828 218.919048,89.8261905 C217.319833,89.1372981 215.935919,88.1962361 214.767262,87.0029762 C213.598605,85.8097163 212.682146,84.4011986 212.017857,82.777381 C211.353568,81.1535633 211.021429,79.4190568 211.021429,77.5738095 L211.021429,77.5 C211.021429,75.6547527 211.347417,73.9263969 211.999405,72.314881 C212.651392,70.703365 213.567851,69.2886966 214.74881,68.0708333 C215.929768,66.8529701 217.332135,65.8934559 218.955952,65.1922619 C220.57977,64.4910679 222.375784,64.1404762 224.344048,64.1404762 C225.525006,64.1404762 226.601384,64.2388879 227.573214,64.4357143 C228.545045,64.6325407 229.436901,64.9093236 230.24881,65.2660714 C231.060718,65.6228192 231.811108,66.0472198 232.5,66.5392857 C233.188892,67.0313517 233.84087,67.5726161 234.455952,68.1630952 L231.540476,71.5214286 C230.507138,70.5619 229.412307,69.7869077 228.255952,69.1964286 C227.099597,68.6059494 225.783341,68.3107143 224.307143,68.3107143 C223.076978,68.3107143 221.939093,68.5505928 220.893452,69.0303571 C219.847812,69.5101214 218.949805,70.1620991 218.199405,70.9863095 C217.449004,71.81052 216.858534,72.7761849 216.427976,73.8833333 C215.997418,74.9904817 215.782143,76.1714223 215.782143,77.4261905 L215.782143,77.5 C215.782143,78.7547682 215.991268,79.9418595 216.409524,81.0613095 C216.82778,82.1807596 217.41825,83.1525752 218.180952,83.9767857 C218.943655,84.8009962 219.847812,85.4529738 220.893452,85.9327381 C221.939093,86.4125024 223.076978,86.652381 224.307143,86.652381 C225.881754,86.652381 227.234915,86.3571458 228.366667,85.7666667 C229.498418,85.1761875 230.617852,84.3642909 231.725,83.3309524 L234.640476,86.2833333 C233.976187,86.996829 233.281154,87.6303544 232.555357,88.1839286 C231.82956,88.7375028 231.048417,89.2172599 230.211905,89.6232143 C229.375393,90.0291687 228.458934,90.3367053 227.4625,90.5458333 C226.466066,90.7549614 225.365085,90.8595238 224.159524,90.8595238 L224.159524,90.8595238 Z M239.40119,64.5833333 L258.554762,64.5833333 L258.554762,68.6428571 L243.940476,68.6428571 L243.940476,75.3595238 L256.894048,75.3595238 L256.894048,79.4190476 L243.940476,79.4190476 L243.940476,86.3571429 L258.739286,86.3571429 L258.739286,90.4166667 L239.40119,90.4166667 L239.40119,64.5833333 Z" id="FRANCE"></path>
            </g>
        </g>
    </g>
</svg>