<?xml version="1.0" encoding="UTF-8" standalone="no"?>
<svg width="631px" height="95px" viewBox="0 0 631 95" version="1.1" xmlns="http://www.w3.org/2000/svg" xmlns:xlink="http://www.w3.org/1999/xlink">
    <!-- Generator: Sketch 3.8.3 (29802) - http://www.bohemiancoding.com/sketch -->
    <title>logo</title>
    <desc>Created with Sketch.</desc>
    <defs></defs>
    <g id="library" stroke="none" stroke-width="1" fill="none" fill-rule="evenodd">
        <g id="Google-App-Copy-2" fill="#2D2D2D">
            <g id="logo" transform="translate(2.000000, 3.000000)">
                <path d="M74.5530461,43.2347244 C83.0295327,40.1513963 89.0833333,32.0230127 89.0833333,22.4806883 L89.0833333,0.402876535 L67.0055215,0.402876535 C58.449717,0.402876535 51.0306093,5.2696537 47.3655372,12.3858691 C49.8925657,12.7935303 52.2954661,13.4531247 54.5742612,14.3646564 C58.6967653,16.0136827 62.2474819,18.3005055 65.2265177,21.2251937 C68.2055534,24.1498818 70.507501,27.5878944 72.1324296,31.5393347 C73.6225963,35.1630661 74.4294622,39.0614963 74.5530461,43.2347244 Z M42.2368202,11.9089742 C38.4903774,5.05311412 31.2131982,0.402876535 22.8498979,0.402876535 C10.6566592,0.402876535 0.77208612,10.2874496 0.77208612,22.4806883 C0.77208612,32.8027214 7.85562449,41.4703055 17.4267739,43.8875131 L17.4267739,11.8911293 L40.9881207,11.8911293 C41.407285,11.8911293 41.8235182,11.8970776 42.2368202,11.9089742 Z M74.5472709,45.8801761 C83.0267829,48.9619123 89.0833333,57.0918206 89.0833333,66.6363119 C89.0833333,78.8295507 79.1987603,88.7141237 67.0055215,88.7141237 C58.4476383,88.7141237 51.0270043,83.8449815 47.3628665,76.725944 C49.8908727,76.3106256 52.2946633,75.6384398 54.5742612,74.7093822 C58.6967653,73.0292422 62.2474819,70.7268627 65.2265177,67.8021746 C68.2055534,64.8774865 70.507501,61.4239172 72.1324296,57.4413632 C73.6010987,53.8417872 74.4060398,49.9880899 74.5472709,45.8801761 Z M42.2349472,77.2114529 C38.4879523,84.0654357 31.2118047,88.7141237 22.8498979,88.7141237 C10.6566592,88.7141237 0.77208612,78.8295507 0.77208612,66.6363119 C0.77208612,56.3142789 7.85562449,47.6466948 17.4267739,45.2294872 L17.4267739,77.2295796 L40.9881207,77.2295796 C41.4066518,77.2295796 41.8222607,77.2235374 42.2349472,77.2114529 Z M29.6165424,43.187938 C37.9277653,40.5147106 44.0898592,33.0493338 44.8488414,24.0457904 C43.7558552,23.9027063 42.6231215,23.8311647 41.4506359,23.8311647 L29.6165424,23.8311647 L29.6165424,43.187938 L29.6165424,43.187938 Z M62.2866847,45.0639298 C52.9620665,47.0941992 45.8373928,55.0164771 45.0084381,64.7349888 C46.7869696,64.4967444 48.4595057,64.073015 50.0260659,63.4637972 C52.5987078,62.4633253 54.7854206,61.0626858 56.5862699,59.2618364 C58.3871193,57.4609871 59.7877588,55.3171511 60.7882307,52.8302639 C61.7499955,50.4395914 62.2494757,47.8508374 62.2866847,45.0639298 L62.2866847,45.0639298 Z M45.0084381,23.8311647 C54.3330563,25.8614341 61.45773,33.7837119 62.2866847,43.5022237 C60.5081532,43.2639793 58.8356171,42.8402499 57.2690569,42.2310321 C54.696415,41.2305602 52.5097022,39.8299206 50.7088529,38.0290713 C48.9080035,36.228222 47.507364,34.0843859 46.5068921,31.5974988 C45.5451273,29.2068263 45.0456471,26.6180723 45.0084381,23.8311647 L45.0084381,23.8311647 Z M44.8487504,64.7558452 C44.0893668,55.7527843 37.9274333,48.2878973 29.6165424,45.6147766 L29.6165424,64.9644974 L41.4506359,64.9644974 C42.6230889,64.9644974 43.7557923,64.8949469 44.8487504,64.7558452 L44.8487504,64.7558452 Z" id="logo-mobile-copy-2"></path>
                <path d="M120,18.8874319 L139.301644,18.8874319 C143.344409,18.8874319 147.05433,19.5406738 150.431519,20.8471773 C153.808707,22.1536808 156.717482,23.9655028 159.157932,26.2826977 C161.598382,28.5998926 163.484156,31.3237882 164.815311,34.4544664 C166.146465,37.5851446 166.812033,40.9746075 166.812033,44.6229569 L166.812033,44.7708622 C166.812033,48.4192116 166.146465,51.8209998 164.815311,54.976329 C163.484156,58.1316582 161.598382,60.8678792 159.157932,63.185074 C156.717482,65.5022689 153.808707,67.3264162 150.431519,68.6575707 C147.05433,69.9887252 143.344409,70.6542925 139.301644,70.6542925 L120,70.6542925 L120,18.8874319 Z M129.096177,27.1701296 L129.096177,62.3715948 L139.301644,62.3715948 C142.013255,62.3715948 144.478319,61.9402086 146.69691,61.0774233 C148.9155,60.214638 150.801274,59.0067566 152.354288,57.453743 C153.907301,55.9007295 155.115183,54.0519315 155.977968,51.9072937 C156.840753,49.7626559 157.27214,47.4331705 157.27214,44.9187675 L157.27214,44.7708622 C157.27214,42.2564592 156.840753,39.9146485 155.977968,37.7453597 C155.115183,35.5760709 153.907301,33.7149476 152.354288,32.161934 C150.801274,30.6089204 148.9155,29.3887138 146.69691,28.5012774 C144.478319,27.6138411 142.013255,27.1701296 139.301644,27.1701296 L129.096177,27.1701296 Z M191.255147,71.5417244 C188.444932,71.5417244 185.819639,71.0487116 183.379189,70.0626712 C180.938739,69.0766309 178.818784,67.696195 177.01926,65.9213224 C175.219736,64.1464497 173.802325,62.0141694 172.766982,59.5244175 C171.73164,57.0346655 171.213976,54.2861192 171.213976,51.2786961 L171.213976,51.1307908 C171.213976,48.3205757 171.682339,45.6829573 172.619077,43.2178564 C173.555815,40.7527554 174.874624,38.5958245 176.575544,36.7469988 C178.276464,34.8981731 180.285491,33.4437854 182.602686,32.383792 C184.919881,31.3237986 187.483547,30.7938098 190.293762,30.7938098 C193.399789,30.7938098 196.123685,31.3607745 198.465531,32.494721 C200.807377,33.6286674 202.754777,35.157007 204.307791,37.0797858 C205.860804,39.0025645 207.03171,41.2334474 207.820542,43.7725013 C208.609374,46.3115553 209.003785,48.9861496 209.003785,51.7963647 C209.003785,52.1907808 208.991459,52.5975164 208.966808,53.0165836 C208.942157,53.4356507 208.905181,53.8670369 208.855879,54.3107551 L180.162248,54.3107551 C180.655268,57.5153863 181.924776,59.9681249 183.97081,61.6690445 C186.016844,63.3699642 188.494233,64.2204112 191.403052,64.2204112 C193.621643,64.2204112 195.544393,63.826001 197.171359,63.0371687 C198.798326,62.2483364 200.400618,61.0897564 201.978282,59.5613938 L207.228921,64.2204112 C205.355444,66.4390021 203.124561,68.2138481 200.536205,69.5450026 C197.947849,70.8761571 194.854194,71.5417244 191.255147,71.5417244 L191.255147,71.5417244 Z M200.129466,48.3945424 C199.98156,46.9647839 199.661101,45.621324 199.168081,44.3641226 C198.675061,43.1069211 198.009494,42.022293 197.171359,41.1102056 C196.333225,40.1981183 195.334874,39.4709244 194.176277,38.9286022 C193.017679,38.38628 191.69887,38.115123 190.219809,38.115123 C187.458896,38.115123 185.178712,39.0641726 183.379189,40.9623003 C181.579665,42.860428 180.482711,45.3378173 180.088295,48.3945424 L200.129466,48.3945424 Z M214.588971,31.6072891 L223.537243,31.6072891 L223.537243,37.5235017 C224.178169,36.6360654 224.868387,35.7979436 225.607917,35.0091113 C226.347447,34.220279 227.197894,33.5054105 228.159284,32.8644843 C229.120673,32.223558 230.205301,31.7182199 231.413201,31.3484548 C232.6211,30.9786896 233.96456,30.7938098 235.443621,30.7938098 C238.253836,30.7938098 240.644948,31.4224011 242.617028,32.6796026 C244.589109,33.9368041 246.092798,35.6007222 247.128141,37.671407 C248.705805,35.6007222 250.554603,33.9368041 252.67459,32.6796026 C254.794577,31.4224011 257.333593,30.7938098 260.291714,30.7938098 C264.580989,30.7938098 267.933476,32.0879684 270.349275,34.6763244 C272.765074,37.2646803 273.972955,40.949951 273.972955,45.7322467 L273.972955,70.6542925 L265.024684,70.6542925 L265.024684,48.4684951 C265.024684,45.3624679 264.334466,42.9960065 262.954009,41.3690399 C261.573553,39.7420733 259.626152,38.9286022 257.111749,38.9286022 C254.646648,38.9286022 252.637621,39.7543986 251.084608,41.4060163 C249.531594,43.0576339 248.755099,45.4610712 248.755099,48.6164004 L248.755099,70.6542925 L239.806827,70.6542925 L239.806827,48.3945424 C239.806827,45.3378173 239.116609,42.9960065 237.736153,41.3690399 C236.355696,39.7420733 234.408296,38.9286022 231.893893,38.9286022 C229.37949,38.9286022 227.358138,39.7913746 225.829775,41.5169452 C224.301412,43.2425159 223.537243,45.6089773 223.537243,48.6164004 L223.537243,70.6542925 L214.588971,70.6542925 L214.588971,31.6072891 Z M299.969075,71.5417244 C297.010954,71.5417244 294.262408,71.0117356 291.723354,69.9517422 C289.1843,68.8917488 286.990393,67.4496864 285.141567,65.6255117 C283.292742,63.8013371 281.850679,61.6567314 280.815337,59.1916305 C279.779995,56.7265296 279.262331,54.1135618 279.262331,51.3526488 L279.262331,51.2047434 C279.262331,48.3945284 279.79232,45.75691 280.852313,43.291809 C281.912307,40.8267081 283.366694,38.6697772 285.21552,36.8209515 C287.064346,34.9721258 289.258253,33.5054127 291.797307,32.4207683 C294.336361,31.3361239 297.109558,30.7938098 300.116981,30.7938098 C303.124404,30.7938098 305.897601,31.3237986 308.436655,32.383792 C310.975709,33.4437854 313.169616,34.8981731 315.018441,36.7469988 C316.867267,38.5958245 318.309329,40.7404301 319.344672,43.18088 C320.380014,45.62133 320.897678,48.2466231 320.897678,51.0568381 L320.897678,51.2047434 C320.897678,53.9656565 320.367689,56.5786243 319.307695,59.0437252 C318.247702,61.5088261 316.793314,63.6657571 314.944489,65.5145828 C313.095663,67.3634084 310.889431,68.8301215 308.325726,69.9147659 C305.762021,70.9994103 302.976499,71.5417244 299.969075,71.5417244 L299.969075,71.5417244 Z M300.116981,63.7027426 C301.941155,63.7027426 303.580423,63.369959 305.034832,62.7043818 C306.489242,62.0388045 307.734099,61.1513815 308.769442,60.0420861 C309.804784,58.9327906 310.593605,57.6263068 311.135927,56.1225952 C311.678249,54.6188836 311.949406,53.0289174 311.949406,51.3526488 L311.949406,51.2047434 C311.949406,49.4791728 311.653598,47.8522306 311.061974,46.323868 C310.47035,44.7955054 309.644553,43.4643709 308.58456,42.3304245 C307.524567,41.1964781 306.267384,40.2967297 304.812974,39.6311525 C303.358565,38.9655752 301.743948,38.6327916 299.969075,38.6327916 C298.194203,38.6327916 296.579586,38.9655752 295.125176,39.6311525 C293.670767,40.2967297 292.425909,41.1841527 291.390567,42.2934481 C290.355225,43.4027436 289.566404,44.7215528 289.024082,46.2499154 C288.48176,47.7782779 288.210603,49.3805695 288.210603,51.0568381 L288.210603,51.2047434 C288.210603,52.9303141 288.50641,54.544931 289.098035,56.0486425 C289.689659,57.5523541 290.515455,58.8711633 291.575449,60.0051097 C292.635442,61.1390562 293.892625,62.0388045 295.347034,62.7043818 C296.801444,63.369959 298.39141,63.7027426 300.116981,63.7027426 L300.116981,63.7027426 Z M344.601265,71.5417244 C341.692446,71.5417244 339.005526,71.0117356 336.540425,69.9517422 C334.075325,68.8917488 331.943044,67.4496864 330.143521,65.6255117 C328.343997,63.8013371 326.93891,61.6567314 325.928219,59.1916305 C324.917528,56.7265296 324.41219,54.1135618 324.41219,51.3526488 L324.41219,51.2047434 C324.41219,48.4438304 324.917528,45.8185373 325.928219,43.3287854 C326.93891,40.8390334 328.356322,38.6697772 330.180497,36.8209515 C332.004672,34.9721258 334.149277,33.5054127 336.614378,32.4207683 C339.079479,31.3361239 341.791049,30.7938098 344.749171,30.7938098 C346.573345,30.7938098 348.237263,30.954039 349.740975,31.2745021 C351.244687,31.5949652 352.625122,32.0510021 353.882324,32.6426263 C355.139525,33.2342505 356.298105,33.949119 357.358099,34.7872534 C358.418092,35.6253877 359.416443,36.5374613 360.353181,37.5235017 L354.732779,43.513667 C353.352323,42.0839085 351.88561,40.9130031 350.332596,40.0009158 C348.779583,39.0888284 346.893809,38.6327916 344.675218,38.6327916 C343.048251,38.6327916 341.544562,38.9655752 340.164106,39.6311525 C338.783649,40.2967297 337.588093,41.1841527 336.577402,42.2934481 C335.56671,43.4027436 334.77789,44.7215528 334.210917,46.2499154 C333.643944,47.7782779 333.360461,49.3805695 333.360461,51.0568381 L333.360461,51.2047434 C333.360461,52.9303141 333.643944,54.5572563 334.210917,56.0856189 C334.77789,57.6139814 335.579036,58.945116 336.614378,60.0790624 C337.649721,61.2130088 338.882253,62.1004318 340.312011,62.7413581 C341.74177,63.3822843 343.319411,63.7027426 345.044981,63.7027426 C347.164968,63.7027426 349.026091,63.2590311 350.628407,62.3715948 C352.230722,61.4841585 353.746737,60.3255784 355.176495,58.8958199 L360.575039,64.2204112 C358.652261,66.3897001 356.458354,68.1522208 353.993253,69.5080263 C351.528152,70.8638318 348.397521,71.5417244 344.601265,71.5417244 L344.601265,71.5417244 Z M365.346747,31.6072891 L374.295018,31.6072891 L374.295018,40.4076554 C375.527569,37.4495343 377.277764,35.0830729 379.545657,33.3082002 C381.81355,31.5333275 384.673024,30.7198564 388.124165,30.8677625 L388.124165,40.3337027 L387.606497,40.3337027 C385.634416,40.3337027 383.834919,40.654161 382.207953,41.2950873 C380.580986,41.9360135 379.175899,42.8973884 377.992651,44.1792409 C376.809403,45.4610934 375.897329,47.0757103 375.256403,49.02314 C374.615476,50.9705698 374.295018,53.2261033 374.295018,55.7898082 L374.295018,70.6542925 L365.346747,70.6542925 L365.346747,31.6072891 Z M401.844144,71.4677717 C400.019969,71.4677717 398.269774,71.20894 396.593505,70.6912688 C394.917237,70.1735976 393.450524,69.4094278 392.193322,68.3987364 C390.936121,67.388045 389.925444,66.1308624 389.161263,64.6271509 C388.397082,63.1234393 388.014997,61.3855692 388.014997,59.4134885 L388.014997,59.2655832 C388.014997,57.1455964 388.409407,55.2967984 389.198239,53.7191338 C389.987072,52.1414692 391.084025,50.8349853 392.489133,49.7996429 C393.89424,48.7643005 395.595134,47.9878054 397.591866,47.4701342 C399.588598,46.952463 401.770179,46.6936313 404.136676,46.6936313 C406.355267,46.6936313 408.278017,46.8415351 409.904984,47.1373472 C411.53195,47.4331594 413.109591,47.8275696 414.637954,48.3205898 L414.637954,47.3592052 C414.637954,44.5489902 413.812157,42.4290352 412.16054,40.9992766 C410.508922,39.5695181 408.105485,38.8546496 404.950156,38.8546496 C402.731565,38.8546496 400.759514,39.0765053 399.033943,39.5202235 C397.308372,39.9639416 395.558177,40.555557 393.783304,41.2950873 L391.416819,34.2695848 C393.586108,33.2835444 395.804666,32.5070492 398.072558,31.940076 C400.340451,31.3731028 403.027371,31.0896205 406.133398,31.0896205 C411.951036,31.0896205 416.264898,32.5440082 419.075113,35.4528273 C420.504872,36.8825858 421.564849,38.6081306 422.255078,40.6295133 C422.945306,42.6508961 423.290415,44.9434056 423.290415,47.5071105 L423.290415,70.6542925 L414.564001,70.6542925 L414.564001,65.7734171 C413.232847,67.3510817 411.531952,68.6945415 409.461268,69.8038369 C407.390583,70.9131323 404.851567,71.4677717 401.844144,71.4677717 L401.844144,71.4677717 Z M404.358534,64.9599378 C405.837595,64.9599378 407.218031,64.7627327 408.499883,64.3683166 C409.781736,63.9739004 410.878689,63.4069357 411.790776,62.6674054 C412.702864,61.9278751 413.430058,61.0404521 413.97238,60.0051097 C414.514702,58.9697673 414.785859,57.8358379 414.785859,56.6032875 L414.785859,53.9409918 C413.651913,53.4972736 412.333103,53.127514 410.829392,52.8317019 C409.32568,52.5358898 407.686413,52.387986 405.91154,52.387986 C403.002721,52.387986 400.747188,52.9549507 399.144872,54.0888971 C397.542556,55.2228435 396.741411,56.8251351 396.741411,58.8958199 L396.741411,59.0437252 C396.741411,60.9172019 397.468604,62.3715896 398.923014,63.406932 C400.377423,64.4422744 402.189246,64.9599378 404.358534,64.9599378 L404.358534,64.9599378 Z M448.620961,71.5417244 C445.712142,71.5417244 443.025222,71.0117356 440.560121,69.9517422 C438.09502,68.8917488 435.96274,67.4496864 434.163216,65.6255117 C432.363693,63.8013371 430.958606,61.6567314 429.947915,59.1916305 C428.937223,56.7265296 428.431885,54.1135618 428.431885,51.3526488 L428.431885,51.2047434 C428.431885,48.4438304 428.937223,45.8185373 429.947915,43.3287854 C430.958606,40.8390334 432.376018,38.6697772 434.200193,36.8209515 C436.024367,34.9721258 438.168973,33.5054127 440.634074,32.4207683 C443.099175,31.3361239 445.810745,30.7938098 448.768866,30.7938098 C450.593041,30.7938098 452.256959,30.954039 453.760671,31.2745021 C455.264382,31.5949652 456.644818,32.0510021 457.902019,32.6426263 C459.159221,33.2342505 460.317801,33.949119 461.377794,34.7872534 C462.437788,35.6253877 463.436139,36.5374613 464.372877,37.5235017 L458.752475,43.513667 C457.372018,42.0839085 455.905305,40.9130031 454.352292,40.0009158 C452.799278,39.0888284 450.913504,38.6327916 448.694914,38.6327916 C447.067947,38.6327916 445.564258,38.9655752 444.183801,39.6311525 C442.803345,40.2967297 441.607789,41.1841527 440.597097,42.2934481 C439.586406,43.4027436 438.797586,44.7215528 438.230612,46.2499154 C437.663639,47.7782779 437.380157,49.3805695 437.380157,51.0568381 L437.380157,51.2047434 C437.380157,52.9303141 437.663639,54.5572563 438.230612,56.0856189 C438.797586,57.6139814 439.598731,58.945116 440.634074,60.0790624 C441.669416,61.2130088 442.901948,62.1004318 444.331707,62.7413581 C445.761465,63.3822843 447.339106,63.7027426 449.064677,63.7027426 C451.184664,63.7027426 453.045787,63.2590311 454.648102,62.3715948 C456.250418,61.4841585 457.766432,60.3255784 459.196191,58.8958199 L464.594735,64.2204112 C462.671956,66.3897001 460.478049,68.1522208 458.012948,69.5080263 C455.547847,70.8638318 452.417216,71.5417244 448.620961,71.5417244 L448.620961,71.5417244 Z M496.063352,31.6072891 L505.381387,31.6072891 L489.851328,71.7635824 C489.062496,73.7849651 488.249025,75.4858592 487.410891,76.8663158 C486.572756,78.2467723 485.636032,79.3683764 484.60069,80.2311617 C483.565347,81.093947 482.431418,81.7225383 481.198867,82.1169545 C479.966317,82.5113706 478.561231,82.7085757 476.983566,82.7085757 C475.110089,82.7085757 473.446171,82.4990453 471.991761,82.0799781 C470.537352,81.660911 469.11994,81.081621 467.739484,80.3420907 L470.771543,73.6863515 C471.609677,74.1300696 472.460124,74.4875039 473.322909,74.758665 C474.185695,75.0298261 475.085443,75.1654046 476.022181,75.1654046 C477.304034,75.1654046 478.364011,74.8449463 479.202146,74.2040201 C480.04028,73.5630938 480.8291,72.4045138 481.568631,70.7282451 L465.299046,31.6072891 L474.912891,31.6072891 L485.931838,60.596731 L496.063352,31.6072891 Z M535.149092,71.5417244 C531.204931,71.5417244 527.655239,70.8145305 524.499909,69.360121 C521.34458,67.9057114 518.645335,65.9459856 516.402093,63.4808847 C514.158852,61.0157837 512.433307,58.1809602 511.225407,54.976329 C510.017508,51.7716978 509.413567,48.3945602 509.413567,44.8448148 L509.413567,44.6969095 C509.413567,41.1471642 510.017508,37.7700266 511.225407,34.5653954 C512.433307,31.3607642 514.158852,28.5259406 516.402093,26.0608397 C518.645335,23.5957388 521.34458,21.636013 524.499909,20.1816034 C527.655239,18.7271939 531.204931,18 535.149092,18 C539.043952,18 542.581318,18.7271939 545.761299,20.1816034 C548.941279,21.636013 551.652849,23.5957388 553.896091,26.0608397 C556.139333,28.5259406 557.864878,31.3607642 559.072777,34.5653954 C560.280676,37.7700266 560.884617,41.1471642 560.884617,44.6969095 L560.884617,44.8448148 C560.884617,48.3945602 560.280676,51.7716978 559.072777,54.976329 C557.864878,58.1809602 556.139333,61.0157837 553.896091,63.4808847 C551.652849,65.9459856 548.941279,67.9057114 545.761299,69.360121 C542.581318,70.8145305 539.043952,71.5417244 535.149092,71.5417244 L535.149092,71.5417244 Z M535.223045,70.0626712 C538.822092,70.0626712 542.100627,69.3724533 545.058748,67.9919968 C548.016869,66.6115403 550.555885,64.7750676 552.675872,62.4825238 C554.795859,60.1899799 556.422801,57.5277109 557.556748,54.4956367 C558.690694,51.4635626 559.257659,48.2713048 559.257659,44.9187675 L559.257659,44.7708622 C559.257659,41.467627 558.678369,38.2876945 557.519771,35.2309693 C556.361174,32.1742442 554.721906,29.4873245 552.601919,27.1701296 C550.481933,24.8529347 547.930591,22.9918114 544.947819,21.5867039 C541.965047,20.1815964 538.674187,19.4790532 535.075139,19.4790532 C531.42679,19.4790532 528.13593,20.1692711 525.20246,21.5497276 C522.26899,22.9301841 519.742299,24.7666567 517.622312,27.0592006 C515.502325,29.3517445 513.875383,32.0263388 512.741437,35.083064 C511.60749,38.1397891 511.040526,41.3197216 511.040526,44.6229569 L511.040526,44.7708622 C511.040526,48.0740974 511.619816,51.2540299 512.778413,54.3107551 C513.937011,57.3674802 515.576278,60.0543999 517.696265,62.3715948 C519.816252,64.6887897 522.367593,66.5499129 525.350365,67.9550205 C528.333137,69.360128 531.623997,70.0626712 535.223045,70.0626712 L535.223045,70.0626712 Z M587.694216,71.3938191 C583.700753,71.3938191 579.990832,70.6789505 576.564341,69.249192 C573.137851,67.8194334 570.019545,65.7734304 567.20933,63.1111214 L568.392573,61.9278788 C571.054882,64.4915838 574.012958,66.463635 577.266892,67.8440915 C580.520825,69.224548 584.045866,69.9147659 587.842122,69.9147659 C590.257921,69.9147659 592.451828,69.6066329 594.423908,68.9903577 C596.395989,68.3740825 598.072232,67.5236354 599.452689,66.438991 C600.833146,65.3543466 601.893123,64.060188 602.632653,62.5564764 C603.372184,61.0527649 603.741943,59.438148 603.741943,57.7125773 L603.741943,57.564672 C603.741943,55.9870074 603.470786,54.5695957 602.928464,53.3123942 C602.386142,52.0551927 601.474068,50.9335886 600.192216,49.9475483 C598.910363,48.9615079 597.172493,48.0864102 594.978553,47.3222289 C592.784613,46.5580476 590.060718,45.8308537 586.806784,45.1406255 C583.602153,44.4996992 580.878258,43.7725054 578.635016,42.9590221 C576.391774,42.1455388 574.567627,41.1964891 573.162519,40.1118447 C571.757412,39.0272003 570.73441,37.782343 570.093484,36.3772355 C569.452558,34.972128 569.132099,33.3575111 569.132099,31.5333364 L569.132099,31.3854311 C569.132099,29.5612564 569.55116,27.848037 570.389294,26.2457214 C571.227429,24.6434058 572.398334,23.2383193 573.902046,22.0304199 C575.405757,20.8225204 577.180603,19.8734708 579.226637,19.1832425 C581.272671,18.4930143 583.528204,18.1479053 585.993305,18.1479053 C589.395145,18.1479053 592.587402,18.6778941 595.570174,19.7378875 C598.552947,20.7978809 601.227541,22.2399433 603.594038,24.064118 L602.558701,25.3952658 C600.241506,23.6696952 597.677839,22.276934 594.867624,21.2169406 C592.057409,20.1569472 589.050031,19.6269585 585.8454,19.6269585 C583.577507,19.6269585 581.519179,19.9474168 579.670353,20.588343 C577.821527,21.2292693 576.231561,22.0920417 574.900407,23.1766861 C573.569252,24.2613305 572.54625,25.5061878 571.831371,26.9112953 C571.116492,28.3164028 570.759058,29.7831159 570.759058,31.3114784 L570.759058,31.4593838 C570.759058,33.0370483 571.030215,34.4421348 571.572537,35.6746853 C572.114859,36.9072357 573.039258,38.0041892 574.345762,38.9655785 C575.652265,39.9269679 577.365485,40.7897403 579.485471,41.5539216 C581.605458,42.3181029 584.267727,43.0206461 587.472358,43.6615723 C590.824896,44.3518006 593.647394,45.1282957 595.939938,45.991081 C598.232482,46.8538664 600.08128,47.839892 601.486387,48.9491874 C602.891495,50.0584828 603.889846,51.3156654 604.48147,52.7207729 C605.073094,54.1258805 605.368902,55.7158467 605.368902,57.4907194 L605.368902,57.6386247 C605.368902,59.5614034 604.962166,61.3609001 604.148683,63.0371687 C603.335199,64.7134373 602.164294,66.1678251 600.635932,67.4003755 C599.107569,68.632926 597.246446,69.6066263 595.052506,70.3215055 C592.858566,71.0363848 590.405827,71.3938191 587.694216,71.3938191 L587.694216,71.3938191 Z" id="DemocracyOS-Copy"></path>
            </g>
        </g>
    </g>
</svg>